<svg width="70" height="71" viewBox="0 0 70 71" fill="none" xmlns="http://www.w3.org/2000/svg">
<g filter="url(#filter0_d)">
<path fill-rule="evenodd" clip-rule="evenodd" d="M34.2332 62.6008C49.488 62.4199 61.7102 49.6143 61.5332 33.9999C61.3559 18.3847 48.8469 5.87006 33.5932 6.05151C18.3428 6.23207 6.12082 19.0386 6.29997 34.6542C6.47512 50.2682 18.9845 62.7809 34.2332 62.6008ZM37.0565 21.9432C41.0929 22.257 44.3011 23.4888 44.6997 27.2721C44.996 30.0404 43.8825 31.7174 42.082 32.683C45.0715 33.3804 46.9601 35.1722 46.6376 39.2419C46.2384 44.296 42.578 45.6941 37.3297 46.0649L37.3888 51.3689L34.2649 51.4064L34.207 46.1732C33.3975 46.1836 32.5683 46.1865 31.7113 46.1785L31.7709 51.4358L28.6505 51.4724L28.589 46.1589C28.2969 46.1604 28.0026 46.1607 27.7062 46.161C27.2611 46.1613 26.8113 46.1617 26.3571 46.1666L22.2919 46.215L22.8693 42.3885C22.8693 42.3885 25.1805 42.398 25.1401 42.3622C26.0241 42.3501 26.2508 41.6974 26.3018 41.2891L26.2076 32.9046C26.2841 32.903 26.3593 32.9022 26.4318 32.9015C26.4678 32.9011 26.5031 32.9007 26.5376 32.9003C26.4084 32.8837 26.2944 32.8813 26.2071 32.8819L26.1391 26.8969C26.0119 26.2494 25.5916 25.5023 24.3263 25.5169C24.3641 25.4729 22.0578 25.5453 22.0578 25.5453L22.0183 22.1299L26.3268 22.0803L26.3274 22.0966C26.9751 22.0885 27.6391 22.0677 28.3153 22.0456L28.2569 16.7934L31.3791 16.7564L31.4369 21.9055C32.2707 21.8785 33.11 21.852 33.9312 21.8421L33.8731 16.7269L36.9969 16.6895L37.0565 21.9432ZM32.3514 42.3094C34.9097 42.3154 40.5009 42.3285 40.458 38.6855C40.416 34.9601 35.0463 35.1537 32.426 35.2482C32.1332 35.2588 31.8748 35.2681 31.6619 35.2706L31.7409 42.3106C31.9156 42.3084 32.1213 42.3089 32.3514 42.3094ZM32.1393 32.0481C34.2737 32.0587 38.9293 32.0818 38.8927 28.7702C38.8539 25.3831 34.3794 25.5576 32.1942 25.6429C31.9484 25.6524 31.7315 25.6609 31.5532 25.663L31.6253 32.048C31.7722 32.0463 31.9454 32.0472 32.1393 32.0481Z" fill="url(#paint0_linear)"/>
</g>
<defs>
<filter id="filter0_d" x="0" y="0" width="69.8317" height="70.6515" filterUnits="userSpaceOnUse" color-interpolation-filters="sRGB">
<feFlood flood-opacity="0" result="BackgroundImageFix"/>
<feColorMatrix in="SourceAlpha" type="matrix" values="0 0 0 0 0 0 0 0 0 0 0 0 0 0 0 0 0 0 127 0"/>
<feOffset dx="2" dy="2"/>
<feColorMatrix type="matrix" values="0 0 0 0 0 0 0 0 0 0 0 0 0 0 0 0 0 0 0.3 0"/>
<feBlend mode="normal" in2="BackgroundImageFix" result="effect1_dropShadow"/>
<feBlend mode="normal" in="SourceGraphic" in2="effect1_dropShadow" result="shape"/>
</filter>
<linearGradient id="paint0_linear" x1="11.3405" y1="57.3459" x2="63.592" y2="42.1117" gradientUnits="userSpaceOnUse">
<stop stop-color="#00FFFF"/>
<stop offset="1" stop-color="#66FFCC"/>
</linearGradient>
</defs>
</svg>
